<svg width="27" height="25" viewBox="0 0 27 25" fill="none" xmlns="http://www.w3.org/2000/svg">
<path d="M24.5 19C23.837 19 23.2011 19.2634 22.7322 19.7322C22.2634 20.2011 22 20.837 22 21.5C22 22.163 22.2634 22.7989 22.7322 23.2678C23.2011 23.7366 23.837 24 24.5 24C25.8875 24 27 22.8875 27 21.5C27 20.837 26.7366 20.2011 26.2678 19.7322C25.7989 19.2634 25.163 19 24.5 19Z" fill="white"/>
<path d="M19.5468 3.21094H14.7343C14.4921 3.21094 14.2968 3.40625 14.2968 3.64844V12.541C14.3574 14.6582 14.2617 17.168 13.9999 17.5977C13.9804 17.623 13.9609 17.6523 13.9472 17.6816C13.6347 18.332 12.5996 19.0059 11.4101 19.0059C10.1738 19.0059 8.7187 17.9395 8.29682 16.7246C8.2598 16.6167 8.18213 16.5276 8.08034 16.4761C7.97856 16.4247 7.8607 16.415 7.7519 16.4492L3.75385 17.7012C3.54682 17.7656 3.42182 17.9707 3.45502 18.1855C3.45698 18.1992 3.46088 18.2129 3.46284 18.2246C3.91596 21.6582 7.16206 23.9629 11.5605 23.9629C15.9609 23.9629 19.2089 21.6562 19.6621 18.2207C19.666 18.2012 19.6699 18.1836 19.6718 18.1641C19.9765 15.2305 19.9804 12.5566 19.9804 12.5293V3.64844C19.9843 3.4082 19.789 3.21094 19.5468 3.21094Z" fill="white"/>
</svg>
